<svg width="138" height="25" viewBox="0 0 138 25" fill="none" xmlns="http://www.w3.org/2000/svg">
<path d="M118.775 17.7083L109.819 0H114.404L121.309 13.5416H128.001L133.397 0H137.982L130.535 17.7083H126.705V25L122.605 25V17.7083H118.775Z" fill="#00C195"/>
<path fill-rule="evenodd" clip-rule="evenodd" d="M89.8378 11.7187V0H60.6216L72.792 25H77.2742L74.4609 19.0104L89.8378 11.7187ZM85.8406 9.63541L72.6732 15.3382L67.0894 4.10556H85.8406V9.63541Z" fill="#00C195"/>
<path fill-rule="evenodd" clip-rule="evenodd" d="M56.9921 0L69.2937 25H43.6654V0H56.9921ZM47.766 4.16667H54.4579L62.6589 20.8333H47.766V4.16667Z" fill="#00C195"/>
<path fill-rule="evenodd" clip-rule="evenodd" d="M106.256 0L118.558 25H92.9296V0H106.256ZM97.0301 4.16667H103.722L111.923 20.8333H97.0301V4.16667Z" fill="#00C195"/>
<path d="M15.8825 4.30107L19.8448 10.2895L13.7738 20.6989L4.18679 20.6989V15.1042H2.10255H0.0183105L0.0183125 25L16.0424 25L24.7087 10.1406L17.9992 0L0.0183125 5.77282e-06L0.0183105 15.1042H2.10255H4.18679V4.30108L15.8825 4.30107Z" fill="#00C195"/>
<path d="M29.4047 3.68853L31.7075 8.29918H40.4909V12.1243H31.7773L26.8676 21.1749H40.4909V25H19.4758L27.9331 10.2731L21.5232 0H40.4909V3.68853H29.4047Z" fill="#00C195"/>
</svg>
