<svg width="20" height="20" viewBox="0 0 20 20" fill="none" xmlns="http://www.w3.org/2000/svg">
<path d="M9.28641 14.9024H3.89264" stroke="#585858" stroke-width="1.5" stroke-linecap="round" stroke-linejoin="round"/>
<path fill-rule="evenodd" clip-rule="evenodd" d="M12.6708 14.9031C12.6708 16.6046 13.2382 17.1713 14.939 17.1713C16.6397 17.1713 17.2071 16.6046 17.2071 14.9031C17.2071 13.2016 16.6397 12.6349 14.939 12.6349C13.2382 12.6349 12.6708 13.2016 12.6708 14.9031Z" stroke="#585858" stroke-width="1.5" stroke-linecap="round" stroke-linejoin="round"/>
<path d="M11.8138 6.16181H17.2068" stroke="#585858" stroke-width="1.5" stroke-linecap="round" stroke-linejoin="round"/>
<path fill-rule="evenodd" clip-rule="evenodd" d="M8.4294 6.16071C8.4294 4.45996 7.86198 3.89255 6.16124 3.89255C4.45975 3.89255 3.89233 4.45996 3.89233 6.16071C3.89233 7.8622 4.45975 8.42886 6.16124 8.42886C7.86198 8.42886 8.4294 7.8622 8.4294 6.16071Z" stroke="#585858" stroke-width="1.5" stroke-linecap="round" stroke-linejoin="round"/>
</svg>
